<svg id="Capa_1" enable-background="new 0 0 512 512" height="512" viewBox="0 0 512 512" width="512" xmlns="http://www.w3.org/2000/svg"><g><g><path d="m346 180h-180c-8.284 0-15 6.716-15 15v302h210v-302c0-8.284-6.716-15-15-15z" fill="#f2faff"/><path d="m346 180h-90v317h105v-302c0-8.284-6.716-15-15-15z" fill="#c8eafa"/><path d="m121 120v45c0 24.813 20.187 45 45 45h180c24.813 0 45-20.187 45-45v-45z" fill="#aed6ea"/><path d="m256 210h90c24.813 0 45-20.187 45-45v-45h-135z" fill="#95c0d9"/><path d="m376 512h-240c-8.284 0-15-6.716-15-15s6.716-15 15-15h240c8.284 0 15 6.716 15 15s-6.716 15-15 15z" fill="#c8eafa"/><g><path d="m218.5 452c-8.284 0-15-6.716-15-15v-182c0-8.284 6.716-15 15-15s15 6.716 15 15v182c0 8.284-6.716 15-15 15z" fill="#c8eafa"/><path d="m293.5 452c-8.284 0-15-6.716-15-15v-182c0-8.284 6.716-15 15-15s15 6.716 15 15v182c0 8.284-6.716 15-15 15z" fill="#aed6ea"/></g><path d="m376 15h-240c-33.137 0-60 26.863-60 60 0 33.137 26.863 60 60 60h240c33.137 0 60-26.863 60-60 0-33.137-26.863-60-60-60z" fill="#f2faff"/><path d="m376 15h-120v120h120c33.137 0 60-26.863 60-60s-26.863-60-60-60z" fill="#c8eafa"/><g><path d="m376 150c-24.813 0-45-20.187-45-45s20.187-45 45-45c8.284 0 15 6.716 15 15s-6.716 15-15 15c-8.271 0-15 6.729-15 15s6.729 15 15 15c24.813 0 45-20.187 45-45s-20.187-45-45-45h-240c-24.813 0-45 20.187-45 45s20.187 45 45 45c8.271 0 15-6.729 15-15s-6.729-15-15-15c-8.284 0-15-6.716-15-15s6.716-15 15-15c24.813 0 45 20.187 45 45s-20.187 45-45 45c-41.355 0-75-33.645-75-75s33.645-75 75-75h240c41.355 0 75 33.645 75 75s-33.645 75-75 75z" fill="#c8eafa"/></g><path d="m376 30c24.813 0 45 20.187 45 45s-20.187 45-45 45c-8.271 0-15-6.729-15-15s6.729-15 15-15c8.284 0 15-6.716 15-15s-6.716-15-15-15c-24.813 0-45 20.187-45 45s20.187 45 45 45c41.355 0 75-33.645 75-75s-33.645-75-75-75h-120v30z" fill="#aed6ea"/></g><g><path d="m391 497c0-8.284-6.716-15-15-15h-120v30h120c8.284 0 15-6.716 15-15z" fill="#aed6ea"/></g></g></svg>